<mxfile host="app.diagrams.net" agent="Mozilla/5.0 (Windows NT 10.0; Win64; x64) AppleWebKit/537.36 (KHTML, like Gecko) Chrome/134.0.0.0 Safari/537.36" version="26.1.1">
  <diagram name="Page-1" id="MfIMg8ceY4TZrhRC4Jw5">
    <mxGraphModel dx="2284" dy="1838" grid="1" gridSize="10" guides="1" tooltips="1" connect="1" arrows="1" fold="1" page="1" pageScale="1" pageWidth="850" pageHeight="1100" math="0" shadow="0">
      <root>
        <mxCell id="0" />
        <mxCell id="1" parent="0" />
        <mxCell id="8QTt8qBD1zh6w0zTsEaT-1" value="Student" style="shape=umlActor;verticalLabelPosition=bottom;verticalAlign=top;html=1;outlineConnect=0;" parent="1" vertex="1">
          <mxGeometry x="-140" y="140" width="30" height="60" as="geometry" />
        </mxCell>
        <mxCell id="8QTt8qBD1zh6w0zTsEaT-2" value="Teacher" style="shape=umlActor;verticalLabelPosition=bottom;verticalAlign=top;html=1;outlineConnect=0;" parent="1" vertex="1">
          <mxGeometry x="-140" y="250" width="30" height="60" as="geometry" />
        </mxCell>
        <mxCell id="8QTt8qBD1zh6w0zTsEaT-3" value="Campus Administrator" style="shape=umlActor;verticalLabelPosition=bottom;verticalAlign=top;html=1;outlineConnect=0;" parent="1" vertex="1">
          <mxGeometry x="-140" y="360" width="30" height="60" as="geometry" />
        </mxCell>
        <mxCell id="8QTt8qBD1zh6w0zTsEaT-10" value="Visitors" style="shape=umlActor;verticalLabelPosition=bottom;verticalAlign=top;html=1;outlineConnect=0;" parent="1" vertex="1">
          <mxGeometry x="-140" y="450" width="30" height="60" as="geometry" />
        </mxCell>
        <mxCell id="8QTt8qBD1zh6w0zTsEaT-20" value="&lt;b&gt;&lt;font style=&quot;font-size: 14px;&quot;&gt;LEVEL 0&lt;/font&gt;&lt;/b&gt;" style="text;html=1;align=center;verticalAlign=middle;whiteSpace=wrap;rounded=0;" parent="1" vertex="1">
          <mxGeometry x="-10" y="-565" width="60" height="30" as="geometry" />
        </mxCell>
        <mxCell id="8QTt8qBD1zh6w0zTsEaT-22" value="Student" style="shape=umlActor;verticalLabelPosition=bottom;verticalAlign=top;html=1;outlineConnect=0;" parent="1" vertex="1">
          <mxGeometry x="-210" y="-520" width="30" height="60" as="geometry" />
        </mxCell>
        <mxCell id="8QTt8qBD1zh6w0zTsEaT-23" value="Teacher" style="shape=umlActor;verticalLabelPosition=bottom;verticalAlign=top;html=1;outlineConnect=0;" parent="1" vertex="1">
          <mxGeometry x="-210" y="-410" width="30" height="60" as="geometry" />
        </mxCell>
        <mxCell id="8QTt8qBD1zh6w0zTsEaT-24" value="Campus Administrator" style="shape=umlActor;verticalLabelPosition=bottom;verticalAlign=top;html=1;outlineConnect=0;" parent="1" vertex="1">
          <mxGeometry x="-210" y="-300" width="30" height="60" as="geometry" />
        </mxCell>
        <mxCell id="8QTt8qBD1zh6w0zTsEaT-26" value="" style="whiteSpace=wrap;html=1;aspect=fixed;" parent="1" vertex="1">
          <mxGeometry x="-70" y="-485" width="210" height="210" as="geometry" />
        </mxCell>
        <mxCell id="8QTt8qBD1zh6w0zTsEaT-27" value="SCEMS" style="ellipse;whiteSpace=wrap;html=1;fillColor=#ffcd28;strokeColor=#d79b00;gradientColor=#ffa500;" parent="1" vertex="1">
          <mxGeometry x="-25" y="-420" width="120" height="80" as="geometry" />
        </mxCell>
        <mxCell id="8QTt8qBD1zh6w0zTsEaT-28" value="GPS" style="rounded=1;whiteSpace=wrap;html=1;" parent="1" vertex="1">
          <mxGeometry x="200" y="-510" width="120" height="60" as="geometry" />
        </mxCell>
        <mxCell id="8QTt8qBD1zh6w0zTsEaT-29" value="EMAIL" style="rounded=1;whiteSpace=wrap;html=1;" parent="1" vertex="1">
          <mxGeometry x="200" y="-410" width="120" height="60" as="geometry" />
        </mxCell>
        <mxCell id="8QTt8qBD1zh6w0zTsEaT-38" value="&lt;b&gt;&lt;font style=&quot;font-size: 14px;&quot;&gt;LEVEL 1&lt;/font&gt;&lt;/b&gt;" style="text;html=1;align=center;verticalAlign=middle;whiteSpace=wrap;rounded=0;" parent="1" vertex="1">
          <mxGeometry x="70" y="10" width="60" height="30" as="geometry" />
        </mxCell>
        <mxCell id="8QTt8qBD1zh6w0zTsEaT-43" value="" style="whiteSpace=wrap;html=1;" parent="1" vertex="1">
          <mxGeometry x="-10" y="70" width="220" height="860" as="geometry" />
        </mxCell>
        <mxCell id="8QTt8qBD1zh6w0zTsEaT-5" value="Account Management" style="ellipse;whiteSpace=wrap;html=1;fillColor=#ffcd28;strokeColor=#d79b00;gradientColor=#ffa500;" parent="1" vertex="1">
          <mxGeometry x="40" y="90" width="120" height="80" as="geometry" />
        </mxCell>
        <mxCell id="8QTt8qBD1zh6w0zTsEaT-4" value="INFORMATION MANAGEMENT" style="ellipse;whiteSpace=wrap;html=1;fillColor=#ffcd28;strokeColor=#d79b00;gradientColor=#ffa500;" parent="1" vertex="1">
          <mxGeometry x="40" y="710" width="120" height="80" as="geometry" />
        </mxCell>
        <mxCell id="8QTt8qBD1zh6w0zTsEaT-6" value="Navigation" style="ellipse;whiteSpace=wrap;html=1;fillColor=#ffcd28;strokeColor=#d79b00;gradientColor=#ffa500;" parent="1" vertex="1">
          <mxGeometry x="40" y="300" width="120" height="80" as="geometry" />
        </mxCell>
        <mxCell id="8QTt8qBD1zh6w0zTsEaT-7" value="Booking And Reservation" style="ellipse;whiteSpace=wrap;html=1;fillColor=#ffcd28;strokeColor=#d79b00;gradientColor=#ffa500;" parent="1" vertex="1">
          <mxGeometry x="40" y="200" width="120" height="80" as="geometry" />
        </mxCell>
        <mxCell id="8QTt8qBD1zh6w0zTsEaT-8" value="Digital Access" style="ellipse;whiteSpace=wrap;html=1;fillColor=#ffcd28;strokeColor=#d79b00;gradientColor=#ffa500;" parent="1" vertex="1">
          <mxGeometry x="40" y="510" width="120" height="80" as="geometry" />
        </mxCell>
        <mxCell id="8QTt8qBD1zh6w0zTsEaT-9" value="Administrative Management" style="ellipse;whiteSpace=wrap;html=1;fillColor=#ffcd28;strokeColor=#d79b00;gradientColor=#ffa500;" parent="1" vertex="1">
          <mxGeometry x="40" y="410" width="120" height="80" as="geometry" />
        </mxCell>
        <mxCell id="8QTt8qBD1zh6w0zTsEaT-11" value="Tour Experience" style="ellipse;whiteSpace=wrap;html=1;fillColor=#ffcd28;strokeColor=#d79b00;gradientColor=#ffa500;" parent="1" vertex="1">
          <mxGeometry x="40" y="610" width="120" height="80" as="geometry" />
        </mxCell>
        <mxCell id="8QTt8qBD1zh6w0zTsEaT-44" value="SMART NOTICEBOARD" style="rounded=1;whiteSpace=wrap;html=1;" parent="1" vertex="1">
          <mxGeometry x="200" y="-290" width="120" height="60" as="geometry" />
        </mxCell>
        <mxCell id="8QTt8qBD1zh6w0zTsEaT-46" value="IoT Device" style="rounded=1;whiteSpace=wrap;html=1;" parent="1" vertex="1">
          <mxGeometry x="200" y="-595" width="120" height="60" as="geometry" />
        </mxCell>
        <mxCell id="8QTt8qBD1zh6w0zTsEaT-48" value="" style="endArrow=none;html=1;rounded=0;exitX=0.5;exitY=0.5;exitDx=0;exitDy=0;exitPerimeter=0;entryX=0;entryY=0.5;entryDx=0;entryDy=0;" parent="1" source="8QTt8qBD1zh6w0zTsEaT-3" target="8QTt8qBD1zh6w0zTsEaT-9" edge="1">
          <mxGeometry width="50" height="50" relative="1" as="geometry">
            <mxPoint x="-70" y="440" as="sourcePoint" />
            <mxPoint x="-20" y="390" as="targetPoint" />
          </mxGeometry>
        </mxCell>
        <mxCell id="8QTt8qBD1zh6w0zTsEaT-50" value="" style="endArrow=none;html=1;rounded=0;exitX=0.5;exitY=0.5;exitDx=0;exitDy=0;exitPerimeter=0;entryX=0;entryY=0.5;entryDx=0;entryDy=0;" parent="1" source="8QTt8qBD1zh6w0zTsEaT-10" target="8QTt8qBD1zh6w0zTsEaT-11" edge="1">
          <mxGeometry width="50" height="50" relative="1" as="geometry">
            <mxPoint x="-80" y="640" as="sourcePoint" />
            <mxPoint x="-30" y="590" as="targetPoint" />
          </mxGeometry>
        </mxCell>
        <mxCell id="8QTt8qBD1zh6w0zTsEaT-56" value="" style="endArrow=none;html=1;rounded=0;exitX=0.5;exitY=0.5;exitDx=0;exitDy=0;exitPerimeter=0;entryX=0;entryY=0.5;entryDx=0;entryDy=0;" parent="1" source="8QTt8qBD1zh6w0zTsEaT-2" target="8QTt8qBD1zh6w0zTsEaT-6" edge="1">
          <mxGeometry width="50" height="50" relative="1" as="geometry">
            <mxPoint x="50" y="330" as="sourcePoint" />
            <mxPoint x="-70" y="330" as="targetPoint" />
          </mxGeometry>
        </mxCell>
        <mxCell id="8QTt8qBD1zh6w0zTsEaT-57" value="" style="endArrow=none;html=1;rounded=0;exitX=0.5;exitY=0.5;exitDx=0;exitDy=0;exitPerimeter=0;entryX=0;entryY=0.5;entryDx=0;entryDy=0;" parent="1" source="8QTt8qBD1zh6w0zTsEaT-1" target="8QTt8qBD1zh6w0zTsEaT-8" edge="1">
          <mxGeometry width="50" height="50" relative="1" as="geometry">
            <mxPoint x="50" y="470" as="sourcePoint" />
            <mxPoint x="100" y="420" as="targetPoint" />
          </mxGeometry>
        </mxCell>
        <mxCell id="8QTt8qBD1zh6w0zTsEaT-58" value="" style="endArrow=none;html=1;rounded=0;entryX=0;entryY=0.5;entryDx=0;entryDy=0;exitX=0.5;exitY=0.5;exitDx=0;exitDy=0;exitPerimeter=0;" parent="1" source="8QTt8qBD1zh6w0zTsEaT-1" target="8QTt8qBD1zh6w0zTsEaT-4" edge="1">
          <mxGeometry width="50" height="50" relative="1" as="geometry">
            <mxPoint x="-110" y="720" as="sourcePoint" />
            <mxPoint x="-60" y="670" as="targetPoint" />
          </mxGeometry>
        </mxCell>
        <mxCell id="8QTt8qBD1zh6w0zTsEaT-59" value="Notification" style="ellipse;whiteSpace=wrap;html=1;fillColor=#ffcd28;strokeColor=#d79b00;gradientColor=#ffa500;" parent="1" vertex="1">
          <mxGeometry x="40" y="820" width="120" height="80" as="geometry" />
        </mxCell>
        <mxCell id="8QTt8qBD1zh6w0zTsEaT-60" value="" style="endArrow=none;html=1;rounded=0;entryX=0;entryY=0.5;entryDx=0;entryDy=0;exitX=0.5;exitY=0.5;exitDx=0;exitDy=0;exitPerimeter=0;" parent="1" source="8QTt8qBD1zh6w0zTsEaT-1" target="8QTt8qBD1zh6w0zTsEaT-59" edge="1">
          <mxGeometry width="50" height="50" relative="1" as="geometry">
            <mxPoint x="-120" y="170" as="sourcePoint" />
            <mxPoint x="-80" y="710" as="targetPoint" />
          </mxGeometry>
        </mxCell>
        <mxCell id="8QTt8qBD1zh6w0zTsEaT-63" value="" style="endArrow=none;html=1;rounded=0;exitX=0.5;exitY=0.5;exitDx=0;exitDy=0;exitPerimeter=0;entryX=0;entryY=0;entryDx=0;entryDy=0;" parent="1" source="8QTt8qBD1zh6w0zTsEaT-3" target="8QTt8qBD1zh6w0zTsEaT-59" edge="1">
          <mxGeometry width="50" height="50" relative="1" as="geometry">
            <mxPoint x="-150" y="800" as="sourcePoint" />
            <mxPoint x="-100" y="750" as="targetPoint" />
          </mxGeometry>
        </mxCell>
        <mxCell id="8QTt8qBD1zh6w0zTsEaT-65" value="&lt;b&gt;&lt;font style=&quot;font-size: 14px;&quot;&gt;Level 1.1&lt;br&gt;Account Management&lt;/font&gt;&lt;/b&gt;" style="text;html=1;align=center;verticalAlign=middle;whiteSpace=wrap;rounded=0;" parent="1" vertex="1">
          <mxGeometry x="50" y="1040" width="80" height="30" as="geometry" />
        </mxCell>
        <mxCell id="8QTt8qBD1zh6w0zTsEaT-67" value="" style="whiteSpace=wrap;html=1;" parent="1" vertex="1">
          <mxGeometry x="20" y="1120" width="200" height="450" as="geometry" />
        </mxCell>
        <mxCell id="8QTt8qBD1zh6w0zTsEaT-66" value="CREATE ACCOUNT" style="ellipse;whiteSpace=wrap;html=1;fillColor=#ffcd28;strokeColor=#d79b00;gradientColor=#ffa500;" parent="1" vertex="1">
          <mxGeometry x="60" y="1150" width="120" height="80" as="geometry" />
        </mxCell>
        <mxCell id="8QTt8qBD1zh6w0zTsEaT-68" value="LOGIN" style="ellipse;whiteSpace=wrap;html=1;fillColor=#ffcd28;strokeColor=#d79b00;gradientColor=#ffa500;" parent="1" vertex="1">
          <mxGeometry x="60" y="1250" width="120" height="80" as="geometry" />
        </mxCell>
        <mxCell id="8QTt8qBD1zh6w0zTsEaT-69" value="UPDATE ACCOUNT" style="ellipse;whiteSpace=wrap;html=1;fillColor=#ffcd28;strokeColor=#d79b00;gradientColor=#ffa500;" parent="1" vertex="1">
          <mxGeometry x="60" y="1360" width="120" height="80" as="geometry" />
        </mxCell>
        <mxCell id="8QTt8qBD1zh6w0zTsEaT-70" value="PASSWORD RECOVERY" style="ellipse;whiteSpace=wrap;html=1;fillColor=#ffcd28;strokeColor=#d79b00;gradientColor=#ffa500;" parent="1" vertex="1">
          <mxGeometry x="60" y="1460" width="120" height="80" as="geometry" />
        </mxCell>
        <mxCell id="8QTt8qBD1zh6w0zTsEaT-71" value="Student" style="shape=umlActor;verticalLabelPosition=bottom;verticalAlign=top;html=1;outlineConnect=0;" parent="1" vertex="1">
          <mxGeometry x="-100" y="1170" width="30" height="60" as="geometry" />
        </mxCell>
        <mxCell id="8QTt8qBD1zh6w0zTsEaT-72" value="Teacher" style="shape=umlActor;verticalLabelPosition=bottom;verticalAlign=top;html=1;outlineConnect=0;" parent="1" vertex="1">
          <mxGeometry x="-100" y="1300" width="30" height="60" as="geometry" />
        </mxCell>
        <mxCell id="8QTt8qBD1zh6w0zTsEaT-88" value="&lt;b&gt;&lt;font style=&quot;font-size: 14px;&quot;&gt;Level 2.1&lt;br&gt;Navigation&lt;/font&gt;&lt;/b&gt;" style="text;html=1;align=center;verticalAlign=middle;whiteSpace=wrap;rounded=0;" parent="1" vertex="1">
          <mxGeometry x="70" y="1670" width="80" height="30" as="geometry" />
        </mxCell>
        <mxCell id="8QTt8qBD1zh6w0zTsEaT-89" value="" style="whiteSpace=wrap;html=1;" parent="1" vertex="1">
          <mxGeometry x="20" y="1730" width="200" height="360" as="geometry" />
        </mxCell>
        <mxCell id="8QTt8qBD1zh6w0zTsEaT-90" value="&lt;font style=&quot;font-size: 14px;&quot;&gt;Classroom Location&lt;/font&gt;" style="ellipse;whiteSpace=wrap;html=1;fillColor=#ffcd28;strokeColor=#d79b00;gradientColor=#ffa500;" parent="1" vertex="1">
          <mxGeometry x="60" y="1750" width="120" height="80" as="geometry" />
        </mxCell>
        <mxCell id="8QTt8qBD1zh6w0zTsEaT-91" value="&lt;font style=&quot;font-size: 14px;&quot;&gt;Library Location&lt;/font&gt;" style="ellipse;whiteSpace=wrap;html=1;fillColor=#ffcd28;strokeColor=#d79b00;gradientColor=#ffa500;" parent="1" vertex="1">
          <mxGeometry x="60" y="1860" width="120" height="80" as="geometry" />
        </mxCell>
        <mxCell id="8QTt8qBD1zh6w0zTsEaT-92" value="&lt;font style=&quot;font-size: 14px;&quot;&gt;Cafeterias Location&lt;/font&gt;" style="ellipse;whiteSpace=wrap;html=1;fillColor=#ffcd28;strokeColor=#d79b00;gradientColor=#ffa500;" parent="1" vertex="1">
          <mxGeometry x="60" y="1970" width="120" height="80" as="geometry" />
        </mxCell>
        <mxCell id="8QTt8qBD1zh6w0zTsEaT-94" value="Student" style="shape=umlActor;verticalLabelPosition=bottom;verticalAlign=top;html=1;outlineConnect=0;" parent="1" vertex="1">
          <mxGeometry x="-130" y="1800" width="30" height="60" as="geometry" />
        </mxCell>
        <mxCell id="8QTt8qBD1zh6w0zTsEaT-95" value="Teacher" style="shape=umlActor;verticalLabelPosition=bottom;verticalAlign=top;html=1;outlineConnect=0;" parent="1" vertex="1">
          <mxGeometry x="-130" y="1925" width="30" height="60" as="geometry" />
        </mxCell>
        <mxCell id="8QTt8qBD1zh6w0zTsEaT-105" value="&lt;font style=&quot;font-size: 14px;&quot;&gt;GPS&lt;/font&gt;" style="rounded=1;whiteSpace=wrap;html=1;" parent="1" vertex="1">
          <mxGeometry x="290" y="1830" width="120" height="60" as="geometry" />
        </mxCell>
        <mxCell id="8QTt8qBD1zh6w0zTsEaT-106" value="" style="endArrow=none;html=1;rounded=0;exitX=1;exitY=0.5;exitDx=0;exitDy=0;entryX=0;entryY=0.5;entryDx=0;entryDy=0;" parent="1" source="8QTt8qBD1zh6w0zTsEaT-90" target="8QTt8qBD1zh6w0zTsEaT-105" edge="1">
          <mxGeometry width="50" height="50" relative="1" as="geometry">
            <mxPoint x="240" y="1850" as="sourcePoint" />
            <mxPoint x="290" y="1800" as="targetPoint" />
          </mxGeometry>
        </mxCell>
        <mxCell id="8QTt8qBD1zh6w0zTsEaT-107" value="" style="endArrow=none;html=1;rounded=0;exitX=1;exitY=0.5;exitDx=0;exitDy=0;entryX=0;entryY=0.75;entryDx=0;entryDy=0;" parent="1" source="8QTt8qBD1zh6w0zTsEaT-91" target="8QTt8qBD1zh6w0zTsEaT-105" edge="1">
          <mxGeometry width="50" height="50" relative="1" as="geometry">
            <mxPoint x="230" y="1970" as="sourcePoint" />
            <mxPoint x="280" y="1920" as="targetPoint" />
          </mxGeometry>
        </mxCell>
        <mxCell id="8QTt8qBD1zh6w0zTsEaT-108" value="" style="endArrow=none;html=1;rounded=0;exitX=1;exitY=0.5;exitDx=0;exitDy=0;entryX=0.5;entryY=1;entryDx=0;entryDy=0;" parent="1" source="8QTt8qBD1zh6w0zTsEaT-92" target="8QTt8qBD1zh6w0zTsEaT-105" edge="1">
          <mxGeometry width="50" height="50" relative="1" as="geometry">
            <mxPoint x="250" y="1870" as="sourcePoint" />
            <mxPoint x="300" y="1820" as="targetPoint" />
          </mxGeometry>
        </mxCell>
        <mxCell id="8QTt8qBD1zh6w0zTsEaT-110" value="&lt;b&gt;&lt;font style=&quot;font-size: 14px;&quot;&gt;Level 3.1&lt;br&gt;Booking and Reservation&lt;/font&gt;&lt;/b&gt;" style="text;html=1;align=center;verticalAlign=middle;whiteSpace=wrap;rounded=0;" parent="1" vertex="1">
          <mxGeometry x="80" y="2140" width="80" height="30" as="geometry" />
        </mxCell>
        <mxCell id="8QTt8qBD1zh6w0zTsEaT-111" value="" style="whiteSpace=wrap;html=1;" parent="1" vertex="1">
          <mxGeometry x="20" y="2210" width="200" height="400" as="geometry" />
        </mxCell>
        <mxCell id="8QTt8qBD1zh6w0zTsEaT-112" value="BOOK STUDY ROOM" style="ellipse;whiteSpace=wrap;html=1;fillColor=#ffcd28;strokeColor=#d79b00;gradientColor=#ffa500;" parent="1" vertex="1">
          <mxGeometry x="60" y="2240" width="120" height="80" as="geometry" />
        </mxCell>
        <mxCell id="8QTt8qBD1zh6w0zTsEaT-113" value="Reserve Seat in Library" style="ellipse;whiteSpace=wrap;html=1;fillColor=#ffcd28;strokeColor=#d79b00;gradientColor=#ffa500;" parent="1" vertex="1">
          <mxGeometry x="60" y="2350" width="120" height="80" as="geometry" />
        </mxCell>
        <mxCell id="8QTt8qBD1zh6w0zTsEaT-114" value="Student" style="shape=umlActor;verticalLabelPosition=bottom;verticalAlign=top;html=1;outlineConnect=0;" parent="1" vertex="1">
          <mxGeometry x="-70" y="2310" width="30" height="60" as="geometry" />
        </mxCell>
        <mxCell id="8QTt8qBD1zh6w0zTsEaT-115" value="" style="endArrow=none;html=1;rounded=0;exitX=0.5;exitY=0.5;exitDx=0;exitDy=0;exitPerimeter=0;entryX=0;entryY=0.5;entryDx=0;entryDy=0;" parent="1" source="8QTt8qBD1zh6w0zTsEaT-114" target="8QTt8qBD1zh6w0zTsEaT-112" edge="1">
          <mxGeometry width="50" height="50" relative="1" as="geometry">
            <mxPoint x="-80" y="2620" as="sourcePoint" />
            <mxPoint x="-30" y="2570" as="targetPoint" />
          </mxGeometry>
        </mxCell>
        <mxCell id="8QTt8qBD1zh6w0zTsEaT-116" value="" style="endArrow=none;html=1;rounded=0;exitX=0.5;exitY=0.5;exitDx=0;exitDy=0;exitPerimeter=0;entryX=0;entryY=0.5;entryDx=0;entryDy=0;" parent="1" source="8QTt8qBD1zh6w0zTsEaT-114" target="8QTt8qBD1zh6w0zTsEaT-113" edge="1">
          <mxGeometry width="50" height="50" relative="1" as="geometry">
            <mxPoint x="-40" y="2620" as="sourcePoint" />
            <mxPoint x="10" y="2570" as="targetPoint" />
          </mxGeometry>
        </mxCell>
        <mxCell id="8QTt8qBD1zh6w0zTsEaT-118" value="" style="endArrow=none;html=1;rounded=0;exitX=0.5;exitY=0.5;exitDx=0;exitDy=0;exitPerimeter=0;entryX=0;entryY=1;entryDx=0;entryDy=0;" parent="1" source="8QTt8qBD1zh6w0zTsEaT-95" target="8QTt8qBD1zh6w0zTsEaT-92" edge="1">
          <mxGeometry width="50" height="50" relative="1" as="geometry">
            <mxPoint x="-60" y="2030" as="sourcePoint" />
            <mxPoint x="-10" y="1980" as="targetPoint" />
          </mxGeometry>
        </mxCell>
        <mxCell id="8QTt8qBD1zh6w0zTsEaT-119" value="" style="endArrow=none;html=1;rounded=0;exitX=0;exitY=1;exitDx=0;exitDy=0;entryX=0.5;entryY=0.5;entryDx=0;entryDy=0;entryPerimeter=0;" parent="1" source="8QTt8qBD1zh6w0zTsEaT-91" target="8QTt8qBD1zh6w0zTsEaT-95" edge="1">
          <mxGeometry width="50" height="50" relative="1" as="geometry">
            <mxPoint x="380" y="2120" as="sourcePoint" />
            <mxPoint x="-60" y="1990" as="targetPoint" />
          </mxGeometry>
        </mxCell>
        <mxCell id="8QTt8qBD1zh6w0zTsEaT-120" value="" style="endArrow=none;html=1;rounded=0;exitX=0.5;exitY=0.5;exitDx=0;exitDy=0;exitPerimeter=0;entryX=0;entryY=1;entryDx=0;entryDy=0;" parent="1" source="8QTt8qBD1zh6w0zTsEaT-95" target="8QTt8qBD1zh6w0zTsEaT-90" edge="1">
          <mxGeometry width="50" height="50" relative="1" as="geometry">
            <mxPoint x="380" y="2120" as="sourcePoint" />
            <mxPoint x="430" y="2070" as="targetPoint" />
          </mxGeometry>
        </mxCell>
        <mxCell id="8QTt8qBD1zh6w0zTsEaT-121" value="" style="endArrow=none;html=1;rounded=0;exitX=0.5;exitY=0.5;exitDx=0;exitDy=0;exitPerimeter=0;entryX=0;entryY=0;entryDx=0;entryDy=0;" parent="1" source="8QTt8qBD1zh6w0zTsEaT-94" target="8QTt8qBD1zh6w0zTsEaT-92" edge="1">
          <mxGeometry width="50" height="50" relative="1" as="geometry">
            <mxPoint x="380" y="2120" as="sourcePoint" />
            <mxPoint x="430" y="2070" as="targetPoint" />
          </mxGeometry>
        </mxCell>
        <mxCell id="8QTt8qBD1zh6w0zTsEaT-122" value="" style="endArrow=none;html=1;rounded=0;exitX=0.5;exitY=0.5;exitDx=0;exitDy=0;exitPerimeter=0;entryX=0;entryY=0;entryDx=0;entryDy=0;" parent="1" source="8QTt8qBD1zh6w0zTsEaT-94" target="8QTt8qBD1zh6w0zTsEaT-91" edge="1">
          <mxGeometry width="50" height="50" relative="1" as="geometry">
            <mxPoint x="-40" y="1900" as="sourcePoint" />
            <mxPoint x="10" y="1850" as="targetPoint" />
          </mxGeometry>
        </mxCell>
        <mxCell id="8QTt8qBD1zh6w0zTsEaT-123" value="" style="endArrow=none;html=1;rounded=0;exitX=0.5;exitY=0.5;exitDx=0;exitDy=0;exitPerimeter=0;entryX=0;entryY=0.5;entryDx=0;entryDy=0;" parent="1" source="8QTt8qBD1zh6w0zTsEaT-94" target="8QTt8qBD1zh6w0zTsEaT-90" edge="1">
          <mxGeometry width="50" height="50" relative="1" as="geometry">
            <mxPoint x="-30" y="1820" as="sourcePoint" />
            <mxPoint x="20" y="1770" as="targetPoint" />
          </mxGeometry>
        </mxCell>
        <mxCell id="8QTt8qBD1zh6w0zTsEaT-124" value="" style="endArrow=none;html=1;rounded=0;exitX=0.5;exitY=0.5;exitDx=0;exitDy=0;exitPerimeter=0;entryX=0;entryY=0.5;entryDx=0;entryDy=0;" parent="1" source="8QTt8qBD1zh6w0zTsEaT-71" target="8QTt8qBD1zh6w0zTsEaT-66" edge="1">
          <mxGeometry width="50" height="50" relative="1" as="geometry">
            <mxPoint x="-40" y="1220" as="sourcePoint" />
            <mxPoint x="10" y="1170" as="targetPoint" />
          </mxGeometry>
        </mxCell>
        <mxCell id="8QTt8qBD1zh6w0zTsEaT-125" value="" style="endArrow=none;html=1;rounded=0;exitX=0.5;exitY=0.5;exitDx=0;exitDy=0;exitPerimeter=0;entryX=0;entryY=0;entryDx=0;entryDy=0;" parent="1" source="8QTt8qBD1zh6w0zTsEaT-71" target="8QTt8qBD1zh6w0zTsEaT-68" edge="1">
          <mxGeometry width="50" height="50" relative="1" as="geometry">
            <mxPoint x="-75" y="1210" as="sourcePoint" />
            <mxPoint x="70" y="1200" as="targetPoint" />
          </mxGeometry>
        </mxCell>
        <mxCell id="8QTt8qBD1zh6w0zTsEaT-126" value="" style="endArrow=none;html=1;rounded=0;exitX=0.5;exitY=0.5;exitDx=0;exitDy=0;exitPerimeter=0;entryX=0;entryY=0;entryDx=0;entryDy=0;" parent="1" source="8QTt8qBD1zh6w0zTsEaT-71" target="8QTt8qBD1zh6w0zTsEaT-69" edge="1">
          <mxGeometry width="50" height="50" relative="1" as="geometry">
            <mxPoint x="-65" y="1220" as="sourcePoint" />
            <mxPoint x="80" y="1210" as="targetPoint" />
          </mxGeometry>
        </mxCell>
        <mxCell id="8QTt8qBD1zh6w0zTsEaT-127" value="" style="endArrow=none;html=1;rounded=0;exitX=0.5;exitY=0.5;exitDx=0;exitDy=0;exitPerimeter=0;entryX=0;entryY=0;entryDx=0;entryDy=0;" parent="1" source="8QTt8qBD1zh6w0zTsEaT-71" target="8QTt8qBD1zh6w0zTsEaT-70" edge="1">
          <mxGeometry width="50" height="50" relative="1" as="geometry">
            <mxPoint x="-55" y="1230" as="sourcePoint" />
            <mxPoint x="-30" y="1480" as="targetPoint" />
          </mxGeometry>
        </mxCell>
        <mxCell id="8QTt8qBD1zh6w0zTsEaT-128" value="" style="endArrow=none;html=1;rounded=0;exitX=0.5;exitY=0.5;exitDx=0;exitDy=0;exitPerimeter=0;entryX=0;entryY=0.5;entryDx=0;entryDy=0;" parent="1" source="8QTt8qBD1zh6w0zTsEaT-72" target="8QTt8qBD1zh6w0zTsEaT-70" edge="1">
          <mxGeometry width="50" height="50" relative="1" as="geometry">
            <mxPoint x="-100" y="1490" as="sourcePoint" />
            <mxPoint x="-50" y="1440" as="targetPoint" />
          </mxGeometry>
        </mxCell>
        <mxCell id="8QTt8qBD1zh6w0zTsEaT-129" value="" style="endArrow=none;html=1;rounded=0;exitX=0.5;exitY=0.5;exitDx=0;exitDy=0;exitPerimeter=0;entryX=0;entryY=0.5;entryDx=0;entryDy=0;" parent="1" source="8QTt8qBD1zh6w0zTsEaT-72" target="8QTt8qBD1zh6w0zTsEaT-69" edge="1">
          <mxGeometry width="50" height="50" relative="1" as="geometry">
            <mxPoint x="-40" y="1400" as="sourcePoint" />
            <mxPoint x="10" y="1350" as="targetPoint" />
          </mxGeometry>
        </mxCell>
        <mxCell id="8QTt8qBD1zh6w0zTsEaT-130" value="" style="endArrow=none;html=1;rounded=0;exitX=0.5;exitY=0.5;exitDx=0;exitDy=0;exitPerimeter=0;entryX=0;entryY=1;entryDx=0;entryDy=0;" parent="1" source="8QTt8qBD1zh6w0zTsEaT-72" target="8QTt8qBD1zh6w0zTsEaT-68" edge="1">
          <mxGeometry width="50" height="50" relative="1" as="geometry">
            <mxPoint x="10" y="1340" as="sourcePoint" />
            <mxPoint x="60" y="1290" as="targetPoint" />
          </mxGeometry>
        </mxCell>
        <mxCell id="8QTt8qBD1zh6w0zTsEaT-131" value="" style="endArrow=none;html=1;rounded=0;exitX=0.5;exitY=0.5;exitDx=0;exitDy=0;exitPerimeter=0;entryX=0;entryY=1;entryDx=0;entryDy=0;" parent="1" source="8QTt8qBD1zh6w0zTsEaT-72" target="8QTt8qBD1zh6w0zTsEaT-66" edge="1">
          <mxGeometry width="50" height="50" relative="1" as="geometry">
            <mxPoint x="20" y="1290" as="sourcePoint" />
            <mxPoint x="70" y="1240" as="targetPoint" />
          </mxGeometry>
        </mxCell>
        <mxCell id="8QTt8qBD1zh6w0zTsEaT-132" value="" style="endArrow=none;html=1;rounded=0;exitX=0.5;exitY=0.5;exitDx=0;exitDy=0;exitPerimeter=0;entryX=-0.006;entryY=0.668;entryDx=0;entryDy=0;entryPerimeter=0;" parent="1" source="8QTt8qBD1zh6w0zTsEaT-24" target="8QTt8qBD1zh6w0zTsEaT-26" edge="1">
          <mxGeometry width="50" height="50" relative="1" as="geometry">
            <mxPoint x="-130" y="-320" as="sourcePoint" />
            <mxPoint x="-80" y="-370" as="targetPoint" />
          </mxGeometry>
        </mxCell>
        <mxCell id="8QTt8qBD1zh6w0zTsEaT-133" value="" style="endArrow=none;html=1;rounded=0;exitX=0.5;exitY=0.5;exitDx=0;exitDy=0;exitPerimeter=0;entryX=0;entryY=0.5;entryDx=0;entryDy=0;" parent="1" source="8QTt8qBD1zh6w0zTsEaT-23" target="8QTt8qBD1zh6w0zTsEaT-26" edge="1">
          <mxGeometry width="50" height="50" relative="1" as="geometry">
            <mxPoint x="-140" y="-360" as="sourcePoint" />
            <mxPoint x="-90" y="-410" as="targetPoint" />
          </mxGeometry>
        </mxCell>
        <mxCell id="8QTt8qBD1zh6w0zTsEaT-134" value="" style="endArrow=none;html=1;rounded=0;exitX=0.5;exitY=0.5;exitDx=0;exitDy=0;exitPerimeter=0;entryX=0;entryY=0.25;entryDx=0;entryDy=0;" parent="1" source="8QTt8qBD1zh6w0zTsEaT-22" target="8QTt8qBD1zh6w0zTsEaT-26" edge="1">
          <mxGeometry width="50" height="50" relative="1" as="geometry">
            <mxPoint x="-140" y="-440" as="sourcePoint" />
            <mxPoint x="-90" y="-490" as="targetPoint" />
          </mxGeometry>
        </mxCell>
        <mxCell id="8QTt8qBD1zh6w0zTsEaT-135" value="" style="endArrow=none;html=1;rounded=0;exitX=0.75;exitY=0;exitDx=0;exitDy=0;entryX=0;entryY=0.5;entryDx=0;entryDy=0;" parent="1" source="8QTt8qBD1zh6w0zTsEaT-26" target="8QTt8qBD1zh6w0zTsEaT-46" edge="1">
          <mxGeometry width="50" height="50" relative="1" as="geometry">
            <mxPoint x="140" y="-510" as="sourcePoint" />
            <mxPoint x="190" y="-560" as="targetPoint" />
          </mxGeometry>
        </mxCell>
        <mxCell id="8QTt8qBD1zh6w0zTsEaT-136" value="" style="endArrow=none;html=1;rounded=0;entryX=0;entryY=0.5;entryDx=0;entryDy=0;exitX=1;exitY=0.25;exitDx=0;exitDy=0;" parent="1" source="8QTt8qBD1zh6w0zTsEaT-26" target="8QTt8qBD1zh6w0zTsEaT-28" edge="1">
          <mxGeometry width="50" height="50" relative="1" as="geometry">
            <mxPoint x="130" y="-360" as="sourcePoint" />
            <mxPoint x="180" y="-410" as="targetPoint" />
          </mxGeometry>
        </mxCell>
        <mxCell id="8QTt8qBD1zh6w0zTsEaT-137" value="" style="endArrow=none;html=1;rounded=0;exitX=1;exitY=0.75;exitDx=0;exitDy=0;entryX=0.25;entryY=1;entryDx=0;entryDy=0;" parent="1" source="8QTt8qBD1zh6w0zTsEaT-26" target="8QTt8qBD1zh6w0zTsEaT-29" edge="1">
          <mxGeometry width="50" height="50" relative="1" as="geometry">
            <mxPoint x="160" y="-330" as="sourcePoint" />
            <mxPoint x="210" y="-380" as="targetPoint" />
          </mxGeometry>
        </mxCell>
        <mxCell id="8QTt8qBD1zh6w0zTsEaT-138" value="" style="endArrow=none;html=1;rounded=0;exitX=1;exitY=0.5;exitDx=0;exitDy=0;entryX=0;entryY=0.5;entryDx=0;entryDy=0;" parent="1" source="8QTt8qBD1zh6w0zTsEaT-26" target="8QTt8qBD1zh6w0zTsEaT-44" edge="1">
          <mxGeometry width="50" height="50" relative="1" as="geometry">
            <mxPoint x="130" y="-240" as="sourcePoint" />
            <mxPoint x="180" y="-290" as="targetPoint" />
          </mxGeometry>
        </mxCell>
        <mxCell id="8QTt8qBD1zh6w0zTsEaT-139" value="" style="endArrow=none;html=1;rounded=0;exitX=0.5;exitY=0.5;exitDx=0;exitDy=0;exitPerimeter=0;entryX=0;entryY=0.5;entryDx=0;entryDy=0;" parent="1" source="8QTt8qBD1zh6w0zTsEaT-1" target="8QTt8qBD1zh6w0zTsEaT-5" edge="1">
          <mxGeometry width="50" height="50" relative="1" as="geometry">
            <mxPoint x="-90" y="220" as="sourcePoint" />
            <mxPoint x="-40" y="170" as="targetPoint" />
          </mxGeometry>
        </mxCell>
        <mxCell id="8QTt8qBD1zh6w0zTsEaT-140" value="" style="endArrow=none;html=1;rounded=0;exitX=0.5;exitY=0.5;exitDx=0;exitDy=0;exitPerimeter=0;entryX=0;entryY=0.5;entryDx=0;entryDy=0;" parent="1" source="8QTt8qBD1zh6w0zTsEaT-1" target="8QTt8qBD1zh6w0zTsEaT-7" edge="1">
          <mxGeometry width="50" height="50" relative="1" as="geometry">
            <mxPoint x="-90" y="230" as="sourcePoint" />
            <mxPoint x="-40" y="180" as="targetPoint" />
          </mxGeometry>
        </mxCell>
        <mxCell id="8QTt8qBD1zh6w0zTsEaT-141" value="" style="endArrow=none;html=1;rounded=0;exitX=0.5;exitY=0.5;exitDx=0;exitDy=0;exitPerimeter=0;entryX=0;entryY=0;entryDx=0;entryDy=0;" parent="1" source="8QTt8qBD1zh6w0zTsEaT-1" target="8QTt8qBD1zh6w0zTsEaT-6" edge="1">
          <mxGeometry width="50" height="50" relative="1" as="geometry">
            <mxPoint x="-20" y="310" as="sourcePoint" />
            <mxPoint x="30" y="260" as="targetPoint" />
          </mxGeometry>
        </mxCell>
        <mxCell id="8QTt8qBD1zh6w0zTsEaT-142" value="" style="endArrow=none;html=1;rounded=0;exitX=0.5;exitY=0.5;exitDx=0;exitDy=0;exitPerimeter=0;entryX=0;entryY=1;entryDx=0;entryDy=0;" parent="1" source="8QTt8qBD1zh6w0zTsEaT-2" target="8QTt8qBD1zh6w0zTsEaT-5" edge="1">
          <mxGeometry width="50" height="50" relative="1" as="geometry">
            <mxPoint x="-20" y="230" as="sourcePoint" />
            <mxPoint x="30" y="180" as="targetPoint" />
          </mxGeometry>
        </mxCell>
        <mxCell id="25" value="Notify" style="ellipse;whiteSpace=wrap;html=1;fillColor=#ffcd28;gradientColor=#ffa500;strokeColor=#d79b00;" parent="1" vertex="1">
          <mxGeometry x="60" y="2460" width="120" height="80" as="geometry" />
        </mxCell>
        <mxCell id="26" value="" style="endArrow=none;html=1;exitX=0.5;exitY=0.5;exitDx=0;exitDy=0;exitPerimeter=0;entryX=0;entryY=0.5;entryDx=0;entryDy=0;" parent="1" source="8QTt8qBD1zh6w0zTsEaT-114" target="25" edge="1">
          <mxGeometry width="50" height="50" relative="1" as="geometry">
            <mxPoint x="-40" y="2460" as="sourcePoint" />
            <mxPoint x="10" y="2410" as="targetPoint" />
          </mxGeometry>
        </mxCell>
        <mxCell id="28" value="" style="endArrow=none;html=1;exitX=1;exitY=0.5;exitDx=0;exitDy=0;entryX=0.5;entryY=1;entryDx=0;entryDy=0;" parent="1" source="25" target="79" edge="1">
          <mxGeometry width="50" height="50" relative="1" as="geometry">
            <mxPoint x="270" y="2470" as="sourcePoint" />
            <mxPoint x="270" y="2440" as="targetPoint" />
          </mxGeometry>
        </mxCell>
        <mxCell id="30" value="&lt;b&gt;&lt;font style=&quot;font-size: 14px;&quot;&gt;Level 4.1&lt;br&gt;Administrative&amp;nbsp;&lt;/font&gt;&lt;/b&gt;&lt;div&gt;&lt;span style=&quot;font-size: 14px;&quot;&gt;&lt;b&gt;Management&lt;/b&gt;&lt;/span&gt;&lt;/div&gt;" style="text;html=1;align=center;verticalAlign=middle;whiteSpace=wrap;rounded=0;" parent="1" vertex="1">
          <mxGeometry x="80" y="3140" width="80" height="30" as="geometry" />
        </mxCell>
        <mxCell id="31" value="Campus Administrator" style="shape=umlActor;verticalLabelPosition=bottom;verticalAlign=top;html=1;outlineConnect=0;" parent="1" vertex="1">
          <mxGeometry x="-120" y="3865" width="30" height="60" as="geometry" />
        </mxCell>
        <mxCell id="32" value="" style="whiteSpace=wrap;html=1;" parent="1" vertex="1">
          <mxGeometry x="10" y="3710" width="200" height="500" as="geometry" />
        </mxCell>
        <mxCell id="33" value="&lt;div&gt;&lt;font color=&quot;#000000&quot;&gt;analytics on foot traffic&lt;/font&gt;&lt;/div&gt;&lt;div&gt;&lt;font color=&quot;#000000&quot;&gt;patterns&lt;/font&gt;&lt;/div&gt;" style="ellipse;whiteSpace=wrap;html=1;fillColor=#ffcd28;strokeColor=#d79b00;gradientColor=#ffa500;" parent="1" vertex="1">
          <mxGeometry x="50" y="3740" width="120" height="80" as="geometry" />
        </mxCell>
        <mxCell id="34" value="peak usage times of facilities" style="ellipse;whiteSpace=wrap;html=1;fillColor=#ffcd28;strokeColor=#d79b00;gradientColor=#ffa500;" parent="1" vertex="1">
          <mxGeometry x="50" y="3855" width="120" height="80" as="geometry" />
        </mxCell>
        <mxCell id="35" value="student engagement with various services" style="ellipse;whiteSpace=wrap;html=1;fillColor=#ffcd28;strokeColor=#d79b00;gradientColor=#ffa500;" parent="1" vertex="1">
          <mxGeometry x="50" y="3970" width="120" height="80" as="geometry" />
        </mxCell>
        <mxCell id="36" value="" style="endArrow=none;html=1;exitX=0.5;exitY=0.5;exitDx=0;exitDy=0;exitPerimeter=0;entryX=0;entryY=0.5;entryDx=0;entryDy=0;" parent="1" source="31" target="33" edge="1">
          <mxGeometry width="50" height="50" relative="1" as="geometry">
            <mxPoint x="-20" y="3920" as="sourcePoint" />
            <mxPoint x="30" y="3870" as="targetPoint" />
          </mxGeometry>
        </mxCell>
        <mxCell id="37" value="" style="endArrow=none;html=1;exitX=0.5;exitY=0.5;exitDx=0;exitDy=0;exitPerimeter=0;entryX=0;entryY=0.5;entryDx=0;entryDy=0;" parent="1" source="31" target="34" edge="1">
          <mxGeometry width="50" height="50" relative="1" as="geometry">
            <mxPoint x="-60" y="4040" as="sourcePoint" />
            <mxPoint x="-10" y="3990" as="targetPoint" />
          </mxGeometry>
        </mxCell>
        <mxCell id="38" value="" style="endArrow=none;html=1;exitX=0.5;exitY=0.5;exitDx=0;exitDy=0;exitPerimeter=0;entryX=0;entryY=0.5;entryDx=0;entryDy=0;" parent="1" source="31" target="35" edge="1">
          <mxGeometry width="50" height="50" relative="1" as="geometry">
            <mxPoint x="-80" y="4070" as="sourcePoint" />
            <mxPoint x="-30" y="4020" as="targetPoint" />
          </mxGeometry>
        </mxCell>
        <mxCell id="41" value="ENSURE SAFETY" style="ellipse;whiteSpace=wrap;html=1;fillColor=#ffcd28;strokeColor=#d79b00;gradientColor=#ffa500;" parent="1" vertex="1">
          <mxGeometry x="50" y="4080" width="120" height="80" as="geometry" />
        </mxCell>
        <mxCell id="44" value="" style="endArrow=none;html=1;exitX=0.5;exitY=0.5;exitDx=0;exitDy=0;exitPerimeter=0;entryX=0;entryY=0.5;entryDx=0;entryDy=0;" parent="1" source="31" target="41" edge="1">
          <mxGeometry width="50" height="50" relative="1" as="geometry">
            <mxPoint x="-80" y="4340" as="sourcePoint" />
            <mxPoint x="-30" y="4290" as="targetPoint" />
          </mxGeometry>
        </mxCell>
        <mxCell id="48" value="&lt;b&gt;&lt;font style=&quot;font-size: 14px;&quot;&gt;Level 3.2&lt;br&gt;Tour Experience&lt;/font&gt;&lt;/b&gt;" style="text;html=1;align=center;verticalAlign=middle;whiteSpace=wrap;rounded=0;" parent="1" vertex="1">
          <mxGeometry x="80" y="2660" width="80" height="30" as="geometry" />
        </mxCell>
        <mxCell id="49" value="" style="whiteSpace=wrap;html=1;" parent="1" vertex="1">
          <mxGeometry x="20" y="2720" width="210" height="340" as="geometry" />
        </mxCell>
        <mxCell id="50" value="Book guide" style="ellipse;whiteSpace=wrap;html=1;fillColor=#ffcd28;gradientColor=#ffa500;strokeColor=#d79b00;" parent="1" vertex="1">
          <mxGeometry x="65" y="2740" width="120" height="80" as="geometry" />
        </mxCell>
        <mxCell id="51" value="Assign a guide" style="ellipse;whiteSpace=wrap;html=1;fillColor=#ffcd28;gradientColor=#ffa500;strokeColor=#d79b00;" parent="1" vertex="1">
          <mxGeometry x="65" y="2850" width="120" height="80" as="geometry" />
        </mxCell>
        <mxCell id="52" value="Recommendation" style="ellipse;whiteSpace=wrap;html=1;fillColor=#ffcd28;gradientColor=#ffa500;strokeColor=#d79b00;" parent="1" vertex="1">
          <mxGeometry x="65" y="2970" width="120" height="80" as="geometry" />
        </mxCell>
        <mxCell id="53" value="Visitor" style="shape=umlActor;verticalLabelPosition=bottom;verticalAlign=top;html=1;outlineConnect=0;" parent="1" vertex="1">
          <mxGeometry x="-100" y="2800" width="30" height="60" as="geometry" />
        </mxCell>
        <mxCell id="54" value="SCHEMS" style="shape=umlActor;verticalLabelPosition=bottom;verticalAlign=top;html=1;outlineConnect=0;" parent="1" vertex="1">
          <mxGeometry x="340" y="2810" width="30" height="60" as="geometry" />
        </mxCell>
        <mxCell id="55" value="" style="endArrow=none;html=1;exitX=0.5;exitY=0.5;exitDx=0;exitDy=0;exitPerimeter=0;entryX=0;entryY=0.5;entryDx=0;entryDy=0;" parent="1" source="53" target="50" edge="1">
          <mxGeometry width="50" height="50" relative="1" as="geometry">
            <mxPoint x="-40" y="2870" as="sourcePoint" />
            <mxPoint x="10" y="2820" as="targetPoint" />
          </mxGeometry>
        </mxCell>
        <mxCell id="57" value="" style="endArrow=none;html=1;exitX=0.5;exitY=0.5;exitDx=0;exitDy=0;exitPerimeter=0;entryX=0;entryY=0.5;entryDx=0;entryDy=0;" parent="1" source="53" target="52" edge="1">
          <mxGeometry width="50" height="50" relative="1" as="geometry">
            <mxPoint x="-60" y="2970" as="sourcePoint" />
            <mxPoint x="-10" y="2920" as="targetPoint" />
          </mxGeometry>
        </mxCell>
        <mxCell id="58" value="SCHEMS" style="shape=umlActor;verticalLabelPosition=bottom;verticalAlign=top;html=1;outlineConnect=0;" parent="1" vertex="1">
          <mxGeometry x="320" y="380" width="30" height="50" as="geometry" />
        </mxCell>
        <mxCell id="59" value="" style="endArrow=none;html=1;exitX=1;exitY=0.5;exitDx=0;exitDy=0;entryX=0.5;entryY=0.5;entryDx=0;entryDy=0;entryPerimeter=0;" parent="1" source="8QTt8qBD1zh6w0zTsEaT-5" target="58" edge="1">
          <mxGeometry width="50" height="50" relative="1" as="geometry">
            <mxPoint x="300" y="240" as="sourcePoint" />
            <mxPoint x="350" y="190" as="targetPoint" />
          </mxGeometry>
        </mxCell>
        <mxCell id="60" value="" style="endArrow=none;html=1;exitX=1;exitY=0.5;exitDx=0;exitDy=0;entryX=0.5;entryY=0.5;entryDx=0;entryDy=0;entryPerimeter=0;" parent="1" source="8QTt8qBD1zh6w0zTsEaT-4" target="58" edge="1">
          <mxGeometry width="50" height="50" relative="1" as="geometry">
            <mxPoint x="280" y="590" as="sourcePoint" />
            <mxPoint x="330" y="540" as="targetPoint" />
          </mxGeometry>
        </mxCell>
        <mxCell id="61" value="" style="endArrow=none;html=1;exitX=1;exitY=0.5;exitDx=0;exitDy=0;entryX=0.5;entryY=0.5;entryDx=0;entryDy=0;entryPerimeter=0;" parent="1" source="8QTt8qBD1zh6w0zTsEaT-9" target="58" edge="1">
          <mxGeometry width="50" height="50" relative="1" as="geometry">
            <mxPoint x="310" y="640" as="sourcePoint" />
            <mxPoint x="360" y="590" as="targetPoint" />
          </mxGeometry>
        </mxCell>
        <mxCell id="62" value="" style="endArrow=none;html=1;exitX=1;exitY=0.5;exitDx=0;exitDy=0;entryX=0.5;entryY=0.5;entryDx=0;entryDy=0;entryPerimeter=0;" parent="1" source="8QTt8qBD1zh6w0zTsEaT-7" target="58" edge="1">
          <mxGeometry width="50" height="50" relative="1" as="geometry">
            <mxPoint x="420" y="580" as="sourcePoint" />
            <mxPoint x="470" y="530" as="targetPoint" />
          </mxGeometry>
        </mxCell>
        <mxCell id="63" value="" style="endArrow=none;html=1;exitX=1;exitY=0.5;exitDx=0;exitDy=0;entryX=0.5;entryY=0.5;entryDx=0;entryDy=0;entryPerimeter=0;" parent="1" source="8QTt8qBD1zh6w0zTsEaT-6" target="58" edge="1">
          <mxGeometry width="50" height="50" relative="1" as="geometry">
            <mxPoint x="310" y="280" as="sourcePoint" />
            <mxPoint x="360" y="230" as="targetPoint" />
          </mxGeometry>
        </mxCell>
        <mxCell id="65" value="" style="endArrow=none;html=1;exitX=1;exitY=0.5;exitDx=0;exitDy=0;entryX=0.5;entryY=0.5;entryDx=0;entryDy=0;entryPerimeter=0;" parent="1" source="8QTt8qBD1zh6w0zTsEaT-8" target="58" edge="1">
          <mxGeometry width="50" height="50" relative="1" as="geometry">
            <mxPoint x="190" y="590" as="sourcePoint" />
            <mxPoint x="240" y="540" as="targetPoint" />
          </mxGeometry>
        </mxCell>
        <mxCell id="66" value="" style="endArrow=none;html=1;exitX=1;exitY=0.5;exitDx=0;exitDy=0;entryX=0.5;entryY=0.5;entryDx=0;entryDy=0;entryPerimeter=0;" parent="1" source="8QTt8qBD1zh6w0zTsEaT-11" target="58" edge="1">
          <mxGeometry width="50" height="50" relative="1" as="geometry">
            <mxPoint x="300" y="590" as="sourcePoint" />
            <mxPoint x="350" y="540" as="targetPoint" />
          </mxGeometry>
        </mxCell>
        <mxCell id="67" value="SMART NOTICEBOARD" style="rounded=1;whiteSpace=wrap;html=1;" parent="1" vertex="1">
          <mxGeometry x="310" y="550" width="120" height="60" as="geometry" />
        </mxCell>
        <mxCell id="68" value="" style="endArrow=none;html=1;exitX=1;exitY=0.5;exitDx=0;exitDy=0;entryX=0;entryY=0.5;entryDx=0;entryDy=0;" parent="1" source="8QTt8qBD1zh6w0zTsEaT-4" target="67" edge="1">
          <mxGeometry width="50" height="50" relative="1" as="geometry">
            <mxPoint x="330" y="740" as="sourcePoint" />
            <mxPoint x="380" y="690" as="targetPoint" />
          </mxGeometry>
        </mxCell>
        <mxCell id="70" value="" style="endArrow=none;html=1;exitX=1;exitY=0.5;exitDx=0;exitDy=0;entryX=0;entryY=0.5;entryDx=0;entryDy=0;" parent="1" source="8QTt8qBD1zh6w0zTsEaT-59" target="75" edge="1">
          <mxGeometry width="50" height="50" relative="1" as="geometry">
            <mxPoint x="240" y="800" as="sourcePoint" />
            <mxPoint x="310" y="700" as="targetPoint" />
          </mxGeometry>
        </mxCell>
        <mxCell id="71" value="" style="endArrow=none;html=1;exitX=1;exitY=0.5;exitDx=0;exitDy=0;entryX=0;entryY=0.5;entryDx=0;entryDy=0;" parent="1" source="8QTt8qBD1zh6w0zTsEaT-4" target="75" edge="1">
          <mxGeometry width="50" height="50" relative="1" as="geometry">
            <mxPoint x="230" y="750" as="sourcePoint" />
            <mxPoint x="310" y="700" as="targetPoint" />
          </mxGeometry>
        </mxCell>
        <mxCell id="72" value="GPS" style="rounded=1;whiteSpace=wrap;html=1;" parent="1" vertex="1">
          <mxGeometry x="310" y="230" width="120" height="60" as="geometry" />
        </mxCell>
        <mxCell id="73" value="" style="endArrow=none;html=1;exitX=1;exitY=0.5;exitDx=0;exitDy=0;entryX=0;entryY=0.5;entryDx=0;entryDy=0;" parent="1" source="8QTt8qBD1zh6w0zTsEaT-6" target="72" edge="1">
          <mxGeometry width="50" height="50" relative="1" as="geometry">
            <mxPoint x="340" y="380" as="sourcePoint" />
            <mxPoint x="390" y="330" as="targetPoint" />
          </mxGeometry>
        </mxCell>
        <mxCell id="74" value="SCHEMS" style="shape=umlActor;verticalLabelPosition=bottom;verticalAlign=top;html=1;outlineConnect=0;" parent="1" vertex="1">
          <mxGeometry x="330" y="1320" width="30" height="50" as="geometry" />
        </mxCell>
        <mxCell id="75" value="Email" style="rounded=0;whiteSpace=wrap;html=1;" parent="1" vertex="1">
          <mxGeometry x="320" y="690" width="120" height="60" as="geometry" />
        </mxCell>
        <mxCell id="76" value="EMAIL" style="rounded=0;whiteSpace=wrap;html=1;" parent="1" vertex="1">
          <mxGeometry x="295" y="1210" width="120" height="60" as="geometry" />
        </mxCell>
        <mxCell id="77" value="" style="endArrow=none;html=1;exitX=1;exitY=0.5;exitDx=0;exitDy=0;entryX=0.5;entryY=0.5;entryDx=0;entryDy=0;entryPerimeter=0;" parent="1" source="8QTt8qBD1zh6w0zTsEaT-70" target="74" edge="1">
          <mxGeometry width="50" height="50" relative="1" as="geometry">
            <mxPoint x="260" y="1480" as="sourcePoint" />
            <mxPoint x="310" y="1430" as="targetPoint" />
          </mxGeometry>
        </mxCell>
        <mxCell id="78" value="" style="endArrow=none;html=1;exitX=1;exitY=0.5;exitDx=0;exitDy=0;entryX=0.25;entryY=1;entryDx=0;entryDy=0;" parent="1" source="8QTt8qBD1zh6w0zTsEaT-70" target="76" edge="1">
          <mxGeometry width="50" height="50" relative="1" as="geometry">
            <mxPoint x="280" y="1500" as="sourcePoint" />
            <mxPoint x="330" y="1450" as="targetPoint" />
          </mxGeometry>
        </mxCell>
        <mxCell id="79" value="EMAIL" style="rounded=0;whiteSpace=wrap;html=1;" parent="1" vertex="1">
          <mxGeometry x="270" y="2350" width="120" height="60" as="geometry" />
        </mxCell>
        <mxCell id="80" value="" style="endArrow=none;html=1;exitX=1;exitY=0.5;exitDx=0;exitDy=0;entryX=0.5;entryY=0.5;entryDx=0;entryDy=0;entryPerimeter=0;" parent="1" source="52" target="54" edge="1">
          <mxGeometry width="50" height="50" relative="1" as="geometry">
            <mxPoint x="270" y="2960" as="sourcePoint" />
            <mxPoint x="320" y="2910" as="targetPoint" />
          </mxGeometry>
        </mxCell>
        <mxCell id="81" value="" style="endArrow=none;html=1;exitX=1;exitY=0.5;exitDx=0;exitDy=0;entryX=0.5;entryY=0.5;entryDx=0;entryDy=0;entryPerimeter=0;" parent="1" source="51" target="54" edge="1">
          <mxGeometry width="50" height="50" relative="1" as="geometry">
            <mxPoint x="260" y="2880" as="sourcePoint" />
            <mxPoint x="310" y="2830" as="targetPoint" />
          </mxGeometry>
        </mxCell>
        <mxCell id="88" value="CAMPUS &lt;br&gt;ADMINISTRATOR" style="shape=umlActor;verticalLabelPosition=bottom;verticalAlign=top;html=1;outlineConnect=0;" parent="1" vertex="1">
          <mxGeometry x="-110" y="3370" width="30" height="60" as="geometry" />
        </mxCell>
        <mxCell id="89" value="" style="whiteSpace=wrap;html=1;" parent="1" vertex="1">
          <mxGeometry x="10" y="3220" width="220" height="370" as="geometry" />
        </mxCell>
        <mxCell id="90" value="MONITOR" style="ellipse;whiteSpace=wrap;html=1;fillColor=#ffcd28;gradientColor=#ffa500;strokeColor=#d79b00;" parent="1" vertex="1">
          <mxGeometry x="60" y="3240" width="120" height="80" as="geometry" />
        </mxCell>
        <mxCell id="91" value="UPDATE AND MANAGEMENT" style="ellipse;whiteSpace=wrap;html=1;fillColor=#ffcd28;gradientColor=#ffa500;strokeColor=#d79b00;" parent="1" vertex="1">
          <mxGeometry x="60" y="3360" width="120" height="80" as="geometry" />
        </mxCell>
        <mxCell id="92" value="MAINTAIN" style="ellipse;whiteSpace=wrap;html=1;fillColor=#ffcd28;gradientColor=#ffa500;strokeColor=#d79b00;" parent="1" vertex="1">
          <mxGeometry x="65" y="3470" width="120" height="80" as="geometry" />
        </mxCell>
        <mxCell id="93" value="" style="endArrow=none;html=1;exitX=0.5;exitY=0.5;exitDx=0;exitDy=0;exitPerimeter=0;entryX=0;entryY=0.5;entryDx=0;entryDy=0;" parent="1" source="88" target="90" edge="1">
          <mxGeometry width="50" height="50" relative="1" as="geometry">
            <mxPoint x="-60" y="3340" as="sourcePoint" />
            <mxPoint x="-10" y="3290" as="targetPoint" />
          </mxGeometry>
        </mxCell>
        <mxCell id="94" value="" style="endArrow=none;html=1;exitX=0.5;exitY=0.5;exitDx=0;exitDy=0;exitPerimeter=0;entryX=0;entryY=0.5;entryDx=0;entryDy=0;" parent="1" source="88" target="91" edge="1">
          <mxGeometry width="50" height="50" relative="1" as="geometry">
            <mxPoint x="-40" y="3450" as="sourcePoint" />
            <mxPoint x="10" y="3400" as="targetPoint" />
          </mxGeometry>
        </mxCell>
        <mxCell id="95" value="" style="endArrow=none;html=1;exitX=0.5;exitY=0.5;exitDx=0;exitDy=0;exitPerimeter=0;entryX=0;entryY=0.5;entryDx=0;entryDy=0;" parent="1" source="88" target="92" edge="1">
          <mxGeometry width="50" height="50" relative="1" as="geometry">
            <mxPoint x="-10" y="3510" as="sourcePoint" />
            <mxPoint x="40" y="3460" as="targetPoint" />
          </mxGeometry>
        </mxCell>
        <mxCell id="96" value="&lt;b&gt;&lt;font style=&quot;font-size: 14px;&quot;&gt;Level 4.2&lt;br&gt;Monitor&lt;/font&gt;&lt;/b&gt;" style="text;html=1;align=center;verticalAlign=middle;whiteSpace=wrap;rounded=0;" parent="1" vertex="1">
          <mxGeometry x="70" y="3640" width="80" height="30" as="geometry" />
        </mxCell>
        <mxCell id="97" value="&lt;b&gt;&lt;font style=&quot;font-size: 14px;&quot;&gt;Level 4.3&lt;br&gt;Update and Management&lt;/font&gt;&lt;/b&gt;" style="text;html=1;align=center;verticalAlign=middle;whiteSpace=wrap;rounded=0;" parent="1" vertex="1">
          <mxGeometry x="85" y="4260" width="80" height="30" as="geometry" />
        </mxCell>
        <mxCell id="98" value="Campus Administrator" style="shape=umlActor;verticalLabelPosition=bottom;verticalAlign=top;html=1;outlineConnect=0;" parent="1" vertex="1">
          <mxGeometry x="-110" y="4430" width="30" height="60" as="geometry" />
        </mxCell>
        <mxCell id="99" value="" style="whiteSpace=wrap;html=1;" parent="1" vertex="1">
          <mxGeometry y="4310" width="225" height="370" as="geometry" />
        </mxCell>
        <mxCell id="39" value="update and manage digital signage" style="ellipse;whiteSpace=wrap;html=1;fillColor=#ffcd28;strokeColor=#d79b00;gradientColor=#ffa500;" parent="1" vertex="1">
          <mxGeometry x="50" y="4330" width="120" height="80" as="geometry" />
        </mxCell>
        <mxCell id="40" value="event notifications" style="ellipse;whiteSpace=wrap;html=1;fillColor=#ffcd28;strokeColor=#d79b00;gradientColor=#ffa500;" parent="1" vertex="1">
          <mxGeometry x="47.5" y="4440" width="120" height="80" as="geometry" />
        </mxCell>
        <mxCell id="100" value="Emergency Alerts" style="ellipse;whiteSpace=wrap;html=1;fillColor=#ffcd28;strokeColor=#d79b00;gradientColor=#ffa500;" parent="1" vertex="1">
          <mxGeometry x="52.5" y="4560" width="120" height="80" as="geometry" />
        </mxCell>
        <mxCell id="102" value="" style="endArrow=none;html=1;exitX=0.5;exitY=0.5;exitDx=0;exitDy=0;exitPerimeter=0;entryX=0;entryY=0.5;entryDx=0;entryDy=0;" parent="1" source="98" target="39" edge="1">
          <mxGeometry width="50" height="50" relative="1" as="geometry">
            <mxPoint x="-60" y="4450" as="sourcePoint" />
            <mxPoint x="-10" y="4400" as="targetPoint" />
          </mxGeometry>
        </mxCell>
        <mxCell id="103" value="" style="endArrow=none;html=1;exitX=0.5;exitY=0.5;exitDx=0;exitDy=0;exitPerimeter=0;entryX=0;entryY=0.5;entryDx=0;entryDy=0;" parent="1" source="98" target="40" edge="1">
          <mxGeometry width="50" height="50" relative="1" as="geometry">
            <mxPoint x="-50" y="4560" as="sourcePoint" />
            <mxPoint y="4510" as="targetPoint" />
          </mxGeometry>
        </mxCell>
        <mxCell id="104" value="" style="endArrow=none;html=1;exitX=0.5;exitY=0.5;exitDx=0;exitDy=0;exitPerimeter=0;entryX=0;entryY=0.5;entryDx=0;entryDy=0;" parent="1" source="98" target="100" edge="1">
          <mxGeometry width="50" height="50" relative="1" as="geometry">
            <mxPoint x="-40" y="4590" as="sourcePoint" />
            <mxPoint x="10" y="4540" as="targetPoint" />
          </mxGeometry>
        </mxCell>
        <mxCell id="105" value="" style="whiteSpace=wrap;html=1;" parent="1" vertex="1">
          <mxGeometry x="-2.5" y="4800" width="220" height="350" as="geometry" />
        </mxCell>
        <mxCell id="106" value="Attendance&lt;br&gt;Tracker" style="ellipse;whiteSpace=wrap;html=1;fillColor=#ffcd28;gradientColor=#ffa500;strokeColor=#d79b00;" parent="1" vertex="1">
          <mxGeometry x="52.5" y="4830" width="120" height="80" as="geometry" />
        </mxCell>
        <mxCell id="107" value="Automated&lt;br&gt;Lighting" style="ellipse;whiteSpace=wrap;html=1;fillColor=#ffcd28;gradientColor=#ffa500;strokeColor=#d79b00;" parent="1" vertex="1">
          <mxGeometry x="52.5" y="4940" width="120" height="80" as="geometry" />
        </mxCell>
        <mxCell id="108" value="Climate Control" style="ellipse;whiteSpace=wrap;html=1;fillColor=#ffcd28;gradientColor=#ffa500;strokeColor=#d79b00;" parent="1" vertex="1">
          <mxGeometry x="52.5" y="5050" width="120" height="80" as="geometry" />
        </mxCell>
        <mxCell id="109" value="&lt;span style=&quot;color: rgb(0, 0, 0);&quot;&gt;Campus Administrator&lt;/span&gt;" style="shape=umlActor;verticalLabelPosition=bottom;verticalAlign=top;html=1;outlineConnect=0;" parent="1" vertex="1">
          <mxGeometry x="-90" y="4945" width="30" height="60" as="geometry" />
        </mxCell>
        <mxCell id="111" value="IoT Device" style="rounded=1;whiteSpace=wrap;html=1;" parent="1" vertex="1">
          <mxGeometry x="250" y="4850" width="120" height="60" as="geometry" />
        </mxCell>
        <mxCell id="112" value="&lt;b&gt;&lt;font style=&quot;font-size: 14px;&quot;&gt;Level 4.4&lt;br&gt;Maintain&lt;/font&gt;&lt;/b&gt;" style="text;html=1;align=center;verticalAlign=middle;whiteSpace=wrap;rounded=0;" parent="1" vertex="1">
          <mxGeometry x="70" y="4750" width="80" height="30" as="geometry" />
        </mxCell>
        <mxCell id="115" value="" style="endArrow=none;html=1;exitX=0.5;exitY=0.5;exitDx=0;exitDy=0;exitPerimeter=0;entryX=-0.004;entryY=0.6;entryDx=0;entryDy=0;entryPerimeter=0;" parent="1" source="109" target="106" edge="1">
          <mxGeometry width="50" height="50" relative="1" as="geometry">
            <mxPoint x="-70" y="4880" as="sourcePoint" />
            <mxPoint x="-20" y="4830" as="targetPoint" />
          </mxGeometry>
        </mxCell>
        <mxCell id="116" value="" style="endArrow=none;html=1;exitX=0.5;exitY=0.5;exitDx=0;exitDy=0;exitPerimeter=0;entryX=0;entryY=0.5;entryDx=0;entryDy=0;" parent="1" source="109" target="107" edge="1">
          <mxGeometry width="50" height="50" relative="1" as="geometry">
            <mxPoint x="-10" y="5020" as="sourcePoint" />
            <mxPoint x="40" y="4970" as="targetPoint" />
          </mxGeometry>
        </mxCell>
        <mxCell id="117" value="" style="endArrow=none;html=1;exitX=0.5;exitY=0.5;exitDx=0;exitDy=0;exitPerimeter=0;entryX=0;entryY=0.5;entryDx=0;entryDy=0;" parent="1" source="109" target="108" edge="1">
          <mxGeometry width="50" height="50" relative="1" as="geometry">
            <mxPoint x="10" y="5110" as="sourcePoint" />
            <mxPoint x="60" y="5060" as="targetPoint" />
          </mxGeometry>
        </mxCell>
        <mxCell id="118" value="" style="endArrow=none;html=1;exitX=1;exitY=0.5;exitDx=0;exitDy=0;entryX=0.25;entryY=1;entryDx=0;entryDy=0;" parent="1" source="108" target="111" edge="1">
          <mxGeometry width="50" height="50" relative="1" as="geometry">
            <mxPoint x="250" y="5000" as="sourcePoint" />
            <mxPoint x="300" y="4950" as="targetPoint" />
          </mxGeometry>
        </mxCell>
        <mxCell id="119" value="" style="endArrow=none;html=1;exitX=1;exitY=0.5;exitDx=0;exitDy=0;entryX=0;entryY=0.5;entryDx=0;entryDy=0;" parent="1" source="107" target="111" edge="1">
          <mxGeometry width="50" height="50" relative="1" as="geometry">
            <mxPoint x="220" y="4980" as="sourcePoint" />
            <mxPoint x="270" y="4930" as="targetPoint" />
          </mxGeometry>
        </mxCell>
        <mxCell id="120" value="" style="endArrow=none;html=1;exitX=1;exitY=0.5;exitDx=0;exitDy=0;entryX=0;entryY=0.25;entryDx=0;entryDy=0;" parent="1" source="106" target="111" edge="1">
          <mxGeometry width="50" height="50" relative="1" as="geometry">
            <mxPoint x="180" y="4900" as="sourcePoint" />
            <mxPoint x="230" y="4850" as="targetPoint" />
          </mxGeometry>
        </mxCell>
        <mxCell id="121" value="&lt;b&gt;&lt;font style=&quot;font-size: 14px;&quot;&gt;Level 5.1&lt;br&gt;INFORMATION&amp;nbsp;&lt;br&gt;MANAGEMENT&lt;/font&gt;&lt;/b&gt;" style="text;html=1;align=center;verticalAlign=middle;whiteSpace=wrap;rounded=0;" parent="1" vertex="1">
          <mxGeometry x="70" y="5210" width="80" height="30" as="geometry" />
        </mxCell>
        <mxCell id="122" value="" style="whiteSpace=wrap;html=1;" parent="1" vertex="1">
          <mxGeometry y="5290" width="220" height="260" as="geometry" />
        </mxCell>
        <mxCell id="123" value="ADMIN&lt;br&gt;PERSPECTIVE" style="ellipse;whiteSpace=wrap;html=1;fillColor=#ffcd28;gradientColor=#ffa500;strokeColor=#d79b00;" parent="1" vertex="1">
          <mxGeometry x="53" y="5310" width="120" height="80" as="geometry" />
        </mxCell>
        <mxCell id="124" value="USER&lt;br&gt;&lt;span style=&quot;color: rgb(0, 0, 0);&quot;&gt;PERSPECTIVE&lt;/span&gt;" style="ellipse;whiteSpace=wrap;html=1;fillColor=#ffcd28;gradientColor=#ffa500;strokeColor=#d79b00;" parent="1" vertex="1">
          <mxGeometry x="53" y="5430" width="120" height="80" as="geometry" />
        </mxCell>
        <mxCell id="125" value="Teacher" style="shape=umlActor;verticalLabelPosition=bottom;verticalAlign=top;html=1;outlineConnect=0;" parent="1" vertex="1">
          <mxGeometry x="-100" y="5410" width="30" height="60" as="geometry" />
        </mxCell>
        <mxCell id="126" value="Campus Administrator" style="shape=umlActor;verticalLabelPosition=bottom;verticalAlign=top;html=1;outlineConnect=0;" parent="1" vertex="1">
          <mxGeometry x="-100" y="5300" width="30" height="60" as="geometry" />
        </mxCell>
        <mxCell id="127" value="Student" style="shape=umlActor;verticalLabelPosition=bottom;verticalAlign=top;html=1;outlineConnect=0;" parent="1" vertex="1">
          <mxGeometry x="-100" y="5520" width="30" height="60" as="geometry" />
        </mxCell>
        <mxCell id="129" value="SCHEMS" style="shape=umlActor;verticalLabelPosition=bottom;verticalAlign=top;html=1;outlineConnect=0;" parent="1" vertex="1">
          <mxGeometry x="310" y="5390" width="20" height="40" as="geometry" />
        </mxCell>
        <mxCell id="130" value="" style="endArrow=none;html=1;exitX=0.5;exitY=0.5;exitDx=0;exitDy=0;exitPerimeter=0;entryX=0;entryY=1;entryDx=0;entryDy=0;" parent="1" source="127" target="124" edge="1">
          <mxGeometry width="50" height="50" relative="1" as="geometry">
            <mxPoint x="-20" y="5530" as="sourcePoint" />
            <mxPoint x="30" y="5480" as="targetPoint" />
          </mxGeometry>
        </mxCell>
        <mxCell id="131" value="" style="endArrow=none;html=1;exitX=0.5;exitY=0.5;exitDx=0;exitDy=0;exitPerimeter=0;entryX=0;entryY=0.5;entryDx=0;entryDy=0;" parent="1" source="125" target="124" edge="1">
          <mxGeometry width="50" height="50" relative="1" as="geometry">
            <mxPoint x="-30" y="5490" as="sourcePoint" />
            <mxPoint x="20" y="5440" as="targetPoint" />
          </mxGeometry>
        </mxCell>
        <mxCell id="132" value="" style="endArrow=none;html=1;exitX=0.5;exitY=0.5;exitDx=0;exitDy=0;exitPerimeter=0;entryX=0;entryY=0.5;entryDx=0;entryDy=0;" parent="1" source="126" target="123" edge="1">
          <mxGeometry width="50" height="50" relative="1" as="geometry">
            <mxPoint x="-10" y="5390" as="sourcePoint" />
            <mxPoint x="40" y="5340" as="targetPoint" />
          </mxGeometry>
        </mxCell>
        <mxCell id="133" value="" style="endArrow=none;html=1;exitX=1;exitY=0.5;exitDx=0;exitDy=0;entryX=0.5;entryY=0.5;entryDx=0;entryDy=0;entryPerimeter=0;" parent="1" source="123" target="129" edge="1">
          <mxGeometry width="50" height="50" relative="1" as="geometry">
            <mxPoint x="220" y="5440" as="sourcePoint" />
            <mxPoint x="270" y="5390" as="targetPoint" />
          </mxGeometry>
        </mxCell>
        <mxCell id="134" value="" style="endArrow=none;html=1;exitX=1;exitY=0.5;exitDx=0;exitDy=0;entryX=0.5;entryY=0.5;entryDx=0;entryDy=0;entryPerimeter=0;" parent="1" source="124" target="129" edge="1">
          <mxGeometry width="50" height="50" relative="1" as="geometry">
            <mxPoint x="220" y="5470" as="sourcePoint" />
            <mxPoint x="290.71067811865476" y="5420" as="targetPoint" />
          </mxGeometry>
        </mxCell>
        <mxCell id="135" value="" style="whiteSpace=wrap;html=1;" parent="1" vertex="1">
          <mxGeometry x="-2.5" y="5670" width="220" height="260" as="geometry" />
        </mxCell>
        <mxCell id="136" value="&lt;b&gt;&lt;font style=&quot;font-size: 14px;&quot;&gt;Level 5.2&lt;br&gt;Admin&lt;br&gt;Perspective&lt;/font&gt;&lt;/b&gt;" style="text;html=1;align=center;verticalAlign=middle;whiteSpace=wrap;rounded=0;" parent="1" vertex="1">
          <mxGeometry x="65" y="5610" width="80" height="30" as="geometry" />
        </mxCell>
        <mxCell id="137" value="STORING RESERVATION&lt;br&gt;DATA&amp;nbsp;" style="ellipse;whiteSpace=wrap;html=1;fillColor=#ffcd28;gradientColor=#ffa500;strokeColor=#d79b00;" parent="1" vertex="1">
          <mxGeometry x="50" y="5700" width="124.5" height="70" as="geometry" />
        </mxCell>
        <mxCell id="138" value="STORING USER DATA" style="ellipse;whiteSpace=wrap;html=1;fillColor=#ffcd28;gradientColor=#ffa500;strokeColor=#d79b00;" parent="1" vertex="1">
          <mxGeometry x="54.5" y="5810" width="120" height="50" as="geometry" />
        </mxCell>
        <mxCell id="139" value="SCHEMS" style="shape=umlActor;verticalLabelPosition=bottom;verticalAlign=top;html=1;outlineConnect=0;" parent="1" vertex="1">
          <mxGeometry x="290" y="5760" width="20" height="40" as="geometry" />
        </mxCell>
        <mxCell id="140" value="Campus Administrator" style="shape=umlActor;verticalLabelPosition=bottom;verticalAlign=top;html=1;outlineConnect=0;" parent="1" vertex="1">
          <mxGeometry x="-80" y="5750" width="30" height="60" as="geometry" />
        </mxCell>
        <mxCell id="141" value="" style="endArrow=none;html=1;exitX=0.5;exitY=0.5;exitDx=0;exitDy=0;exitPerimeter=0;entryX=0;entryY=0.5;entryDx=0;entryDy=0;" parent="1" source="140" target="137" edge="1">
          <mxGeometry width="50" height="50" relative="1" as="geometry">
            <mxPoint x="-20" y="5790" as="sourcePoint" />
            <mxPoint x="30" y="5740" as="targetPoint" />
          </mxGeometry>
        </mxCell>
        <mxCell id="142" value="" style="endArrow=none;html=1;exitX=0.5;exitY=0.5;exitDx=0;exitDy=0;exitPerimeter=0;entryX=0;entryY=0.5;entryDx=0;entryDy=0;" parent="1" source="140" target="138" edge="1">
          <mxGeometry width="50" height="50" relative="1" as="geometry">
            <mxPoint x="-20" y="5870" as="sourcePoint" />
            <mxPoint x="30" y="5820" as="targetPoint" />
          </mxGeometry>
        </mxCell>
        <mxCell id="143" value="" style="endArrow=none;html=1;exitX=1;exitY=0.5;exitDx=0;exitDy=0;entryX=0.5;entryY=0.5;entryDx=0;entryDy=0;entryPerimeter=0;" parent="1" source="138" target="139" edge="1">
          <mxGeometry width="50" height="50" relative="1" as="geometry">
            <mxPoint x="220" y="5830" as="sourcePoint" />
            <mxPoint x="270" y="5780" as="targetPoint" />
          </mxGeometry>
        </mxCell>
        <mxCell id="144" value="" style="endArrow=none;html=1;exitX=1;exitY=0.5;exitDx=0;exitDy=0;entryX=0.5;entryY=0.5;entryDx=0;entryDy=0;entryPerimeter=0;" parent="1" source="137" target="139" edge="1">
          <mxGeometry width="50" height="50" relative="1" as="geometry">
            <mxPoint x="220" y="5750" as="sourcePoint" />
            <mxPoint x="270" y="5700" as="targetPoint" />
          </mxGeometry>
        </mxCell>
        <mxCell id="145" value="" style="whiteSpace=wrap;html=1;" parent="1" vertex="1">
          <mxGeometry x="2.5" y="6030" width="220" height="360" as="geometry" />
        </mxCell>
        <mxCell id="146" value="&lt;b&gt;&lt;font style=&quot;font-size: 14px;&quot;&gt;Level 5.3&lt;br&gt;User&lt;br&gt;Perspective&lt;/font&gt;&lt;/b&gt;" style="text;html=1;align=center;verticalAlign=middle;whiteSpace=wrap;rounded=0;" parent="1" vertex="1">
          <mxGeometry x="70" y="5970" width="80" height="30" as="geometry" />
        </mxCell>
        <mxCell id="147" value="Digital Access" style="ellipse;whiteSpace=wrap;html=1;fillColor=#ffcd28;gradientColor=#ffa500;strokeColor=#d79b00;" parent="1" vertex="1">
          <mxGeometry x="55" y="6060" width="124.5" height="70" as="geometry" />
        </mxCell>
        <mxCell id="148" value="STORING USER DATA" style="ellipse;whiteSpace=wrap;html=1;fillColor=#ffcd28;gradientColor=#ffa500;strokeColor=#d79b00;" parent="1" vertex="1">
          <mxGeometry x="53" y="6280" width="120" height="50" as="geometry" />
        </mxCell>
        <mxCell id="149" value="SCHEMS" style="shape=umlActor;verticalLabelPosition=bottom;verticalAlign=top;html=1;outlineConnect=0;" parent="1" vertex="1">
          <mxGeometry x="325" y="6190" width="20" height="40" as="geometry" />
        </mxCell>
        <mxCell id="150" value="Student" style="shape=umlActor;verticalLabelPosition=bottom;verticalAlign=top;html=1;outlineConnect=0;" parent="1" vertex="1">
          <mxGeometry x="-80" y="6150" width="30" height="60" as="geometry" />
        </mxCell>
        <mxCell id="151" value="" style="endArrow=none;html=1;exitX=0.5;exitY=0.5;exitDx=0;exitDy=0;exitPerimeter=0;entryX=0;entryY=0.5;entryDx=0;entryDy=0;" parent="1" source="150" target="147" edge="1">
          <mxGeometry width="50" height="50" relative="1" as="geometry">
            <mxPoint x="-15" y="6150" as="sourcePoint" />
            <mxPoint x="35" y="6100" as="targetPoint" />
          </mxGeometry>
        </mxCell>
        <mxCell id="153" value="" style="endArrow=none;html=1;exitX=1;exitY=0.5;exitDx=0;exitDy=0;entryX=0.5;entryY=0.5;entryDx=0;entryDy=0;entryPerimeter=0;" parent="1" source="148" target="149" edge="1">
          <mxGeometry width="50" height="50" relative="1" as="geometry">
            <mxPoint x="225" y="6190" as="sourcePoint" />
            <mxPoint x="275" y="6140" as="targetPoint" />
          </mxGeometry>
        </mxCell>
        <mxCell id="155" value="UPDATE And FEEDBACK" style="ellipse;whiteSpace=wrap;html=1;fillColor=#ffcd28;gradientColor=#ffa500;strokeColor=#d79b00;" parent="1" vertex="1">
          <mxGeometry x="50.75" y="6170" width="124.5" height="70" as="geometry" />
        </mxCell>
        <mxCell id="158" value="" style="endArrow=none;html=1;exitX=0.5;exitY=0.5;exitDx=0;exitDy=0;exitPerimeter=0;entryX=0;entryY=0.5;entryDx=0;entryDy=0;" parent="1" source="150" target="155" edge="1">
          <mxGeometry width="50" height="50" relative="1" as="geometry">
            <mxPoint x="-10" y="6270" as="sourcePoint" />
            <mxPoint x="40" y="6220" as="targetPoint" />
          </mxGeometry>
        </mxCell>
        <mxCell id="160" value="SMART NOTICEBOARD" style="rounded=1;whiteSpace=wrap;html=1;" parent="1" vertex="1">
          <mxGeometry x="270" y="6090" width="120" height="60" as="geometry" />
        </mxCell>
        <mxCell id="161" value="" style="endArrow=none;html=1;exitX=1;exitY=0.5;exitDx=0;exitDy=0;entryX=0.5;entryY=1;entryDx=0;entryDy=0;" parent="1" source="155" target="160" edge="1">
          <mxGeometry width="50" height="50" relative="1" as="geometry">
            <mxPoint x="230" y="6200" as="sourcePoint" />
            <mxPoint x="280" y="6150" as="targetPoint" />
          </mxGeometry>
        </mxCell>
      </root>
    </mxGraphModel>
  </diagram>
</mxfile>
